# xmcd
#
# Track frame offsets:
#	150
#	18917
#	36211
#	61986
#	82152
#	92749
#	115021
#	138055
#	157114
#	173681
#	184484
#	205669
#
# Disc length: 3103 seconds
#
# Revision: 0
# Processed by: cddbd v1.4PL0 Copyright (c) Steve Scherf et al.
# Submitted via: EasyCDDAExtractor 4.6.9.1
#
DISCID=9a0c1d0c
DTITLE=Dixie Chicks - Home
DYEAR=2002
DGENRE=Country
TTITLE0=Long Time Gone
TTITLE1=Landslide
TTITLE2=Travelin' Soldier
TTITLE3=Truth #2
TTITLE4=White Trash Wedding
TTITLE5=A Home
TTITLE6=More Love
TTITLE7=I Believe In Love
TTITLE8=Tortured, Tangled Hearts
TTITLE9=Lil' Jack Slade
TTITLE10=Godspeed (Sweet Dreams)
TTITLE11=Top Of The World
EXTD=
EXTT0=
EXTT1=
EXTT2=
EXTT3=
EXTT4=
EXTT5=
EXTT6=
EXTT7=
EXTT8=
EXTT9=
EXTT10=
EXTT11=
PLAYORDER=
